<?xml version="1.0" encoding="UTF-8"?>
<svg width="26px" height="26px" viewBox="0 0 26 26" version="1.1" xmlns="http://www.w3.org/2000/svg" xmlns:xlink="http://www.w3.org/1999/xlink">
    <!-- Generator: Sketch 41.2 (35397) - http://www.bohemiancoding.com/sketch -->
    <title>Reorder Icon Color</title>
    <desc>Created with Sketch.</desc>
    <defs></defs>
    <g id="Symbols" stroke="none" stroke-width="1" fill="none" fill-rule="evenodd">
        <g id="Reorder-Icon-Color" fill="#64ADFA">
            <path d="M13.0912655,16.3050847 L17.9564002,16.3050847 L18.5,16.3050847 L18.5,18 L17.9564002,18 L12.0435998,18 L11.8697808,18 L13.0912655,16.3050847 Z M11.8697808,8 L12.0435998,8 L17.9564002,8 L18.5,8 L18.5,9.69491525 L17.9564002,9.69491525 L13.0912655,9.69491525 L11.8697808,8 Z M17.9564002,13.8474576 L18.5,13.8474576 L18.5,12.1525424 L17.9564002,12.1525424 L12.0435998,12.1525424 L11.5,12.1525424 L11.5,13.8474576 L12.0435998,13.8474576 L17.9564002,13.8474576 Z" id="Combined-Shape"></path>
            <path d="M8,16 L8,10 L6.5,10 L9,7 L11.5,10 L9.66666667,10 L9.66666667,16 L11.5,16 L9,19 L6.5,16 L8,16 Z" id="Combined-Shape"></path>
            <path d="M24,13 C24,6.92486775 19.0751322,2 13,2 C6.92486775,2 2,6.92486775 2,13 C2,19.0751322 6.92486775,24 13,24 C19.0751322,24 24,19.0751322 24,13 Z M0,13 C0,5.82029825 5.82029825,0 13,0 C20.1797017,0 26,5.82029825 26,13 C26,20.1797017 20.1797017,26 13,26 C5.82029825,26 0,20.1797017 0,13 Z" id="Oval-2"></path>
        </g>
    </g>
</svg>