<?xml version="1.0" encoding="UTF-8"?>
<svg width="26px" height="26px" viewBox="0 0 26 26" version="1.1" xmlns="http://www.w3.org/2000/svg" xmlns:xlink="http://www.w3.org/1999/xlink">
    <!-- Generator: Sketch 41.2 (35397) - http://www.bohemiancoding.com/sketch -->
    <title>Calendar Icon Color</title>
    <desc>Created with Sketch.</desc>
    <defs></defs>
    <g id="Symbols" stroke="none" stroke-width="1" fill="none" fill-rule="evenodd">
        <g id="Calendar-Icon-Color" fill="#8E59CD">
            <g id="Calendar" transform="translate(6.500000, 7.000000)">
                <polygon id="Line" points="11.5 3 12 3 12 2 11.5 2 1.5 2 1 2 1 3 1.5 3"></polygon>
                <polygon id="Line" points="11.5 6 12 6 12 5 11.5 5 1.5 5 1 5 1 6 1.5 6"></polygon>
                <polygon id="Line" points="11.5 9 12 9 12 8 11.5 8 1.5 8 1 8 1 9 1.5 9"></polygon>
                <polygon id="Line" points="3 10.5 3 11 4 11 4 10.5 4 3 4 2.5 3 2.5 3 3"></polygon>
                <polygon id="Line" points="9 10.5 9 11 10 11 10 10.5 10 3 10 2.5 9 2.5 9 3"></polygon>
                <polygon id="Line" points="6 10.5 6 11 7 11 7 10.5 7 3 7 2.5 6 2.5 6 3"></polygon>
                <polygon id="Line" points="3 1.5 3 2 4 2 4 1.5 4 0.5 4 0 3 0 3 0.5"></polygon>
                <polygon id="Line" points="2 1.5 2 2 3 2 3 1.5 3 0.5 3 0 2 0 2 0.5"></polygon>
                <polygon id="Line" points="4 1.5 4 2 5 2 5 1.5 5 0.5 5 0 4 0 4 0.5"></polygon>
                <polygon id="Line" points="8 1.5 8 2 9 2 9 1.5 9 0.5 9 0 8 0 8 0.5"></polygon>
                <polygon id="Line" points="9 1.5 9 2 10 2 10 1.5 10 0.5 10 0 9 0 9 0.5"></polygon>
                <polygon id="Line" points="10 1.5 10 2 11 2 11 1.5 11 0.5 11 0 10 0 10 0.5"></polygon>
                <path d="M0,2 L1,1 L1,12 L0,11 L13,11 L12,12 L12,1 L13,2 L0,2 Z M13,1 L13,12 L0,12 L0,1 L13,1 Z" id="Rectangle-4"></path>
            </g>
            <path d="M24,13 C24,6.92486775 19.0751322,2 13,2 C6.92486775,2 2,6.92486775 2,13 C2,19.0751322 6.92486775,24 13,24 C19.0751322,24 24,19.0751322 24,13 Z M0,13 C0,5.82029825 5.82029825,0 13,0 C20.1797017,0 26,5.82029825 26,13 C26,20.1797017 20.1797017,26 13,26 C5.82029825,26 0,20.1797017 0,13 Z" id="Oval-2"></path>
        </g>
    </g>
</svg>