<?xml version="1.0" encoding="UTF-8"?>
<svg width="26px" height="26px" viewBox="0 0 26 26" version="1.1" xmlns="http://www.w3.org/2000/svg" xmlns:xlink="http://www.w3.org/1999/xlink">
    <!-- Generator: Sketch 41.2 (35397) - http://www.bohemiancoding.com/sketch -->
    <title>Add Icon Color</title>
    <desc>Created with Sketch.</desc>
    <defs></defs>
    <g id="Symbols" stroke="none" stroke-width="1" fill="none" fill-rule="evenodd">
        <g id="Add-Icon-Color">
            <path d="M24,13 C24,6.92486775 19.0751322,2 13,2 C6.92486775,2 2,6.92486775 2,13 C2,19.0751322 6.92486775,24 13,24 C19.0751322,24 24,19.0751322 24,13 Z M0,13 C0,5.82029825 5.82029825,0 13,0 C20.1797017,0 26,5.82029825 26,13 C26,20.1797017 20.1797017,26 13,26 C5.82029825,26 0,20.1797017 0,13 Z" id="Oval-2" fill="#5BCC5D"></path>
            <path d="M12,7 L7,7 L7,18.75 L18.75,18.75 L18.75,13.75 L17.4444444,13.75 L17.4444444,17.4444444 L8.30555556,17.4444444 L8.30555556,8.30555556 L12,8.30555556 L12,7 Z" id="Combined-Shape" fill="#61C55D"></path>
            <path d="M15.5,10.25 L13,10.25 L13,9 L15.5,9 L15.5,6.5 L16.75,6.5 L16.75,9 L19.2199998,9 L19.2199998,10.25 L16.75,10.25 L16.75,12.7199998 L15.5,12.7199998 L15.5,10.25 Z" id="Combined-Shape" fill="#5BCC5D" transform="translate(16.110000, 9.610000) rotate(-360.000000) translate(-16.110000, -9.610000) "></path>
        </g>
    </g>
</svg>