<?xml version="1.0" encoding="UTF-8"?>
<svg width="26px" height="26px" viewBox="0 0 26 26" version="1.1" xmlns="http://www.w3.org/2000/svg" xmlns:xlink="http://www.w3.org/1999/xlink">
    <!-- Generator: Sketch 40.1 (33804) - http://www.bohemiancoding.com/sketch -->
    <title>Reorder Icon</title>
    <desc>Created with Sketch.</desc>
    <defs></defs>
    <g id="Symbols" stroke="none" stroke-width="1" fill="none" fill-rule="evenodd">
        <g id="Reorder-Icon" fill="#FFFFFF">
            <g id="Lines" transform="translate(7.500000, 8.000000)">
                <polygon id="Line" points="10.0498719 9.83333333 10.8960257 9.83333333 10.8960257 8.16666667 10.0498719 8.16666667 0.846153846 8.16666667 3.00614234e-15 8.16666667 0 9.83333333 0.846153846 9.83333333"></polygon>
                <polygon id="Line-Copy-2" points="10.0498719 5.75 10.8960257 5.75 10.8960257 4.08333333 10.0498719 4.08333333 0.846153846 4.08333333 3.00614234e-15 4.08333333 0 5.75 0.846153846 5.75"></polygon>
                <polygon id="Line-Copy" points="0.846153846 -1.11022302e-16 3.38191014e-15 -1.77635684e-15 0 1.66666667 0.846153846 1.66666667 10.0498719 1.66666667 10.8960257 1.66666667 10.8960257 1.93178806e-14 10.0498719 1.76525461e-14"></polygon>
            </g>
            <path d="M24,13 C24,6.92486775 19.0751322,2 13,2 C6.92486775,2 2,6.92486775 2,13 C2,19.0751322 6.92486775,24 13,24 C19.0751322,24 24,19.0751322 24,13 Z M0,13 C0,5.82029825 5.82029825,0 13,0 C20.1797017,0 26,5.82029825 26,13 C26,20.1797017 20.1797017,26 13,26 C5.82029825,26 0,20.1797017 0,13 Z" id="Oval-2"></path>
        </g>
    </g>
</svg>