<?xml version="1.0" encoding="UTF-8"?>
<svg width="18px" height="18px" viewBox="0 0 18 18" version="1.1" xmlns="http://www.w3.org/2000/svg" xmlns:xlink="http://www.w3.org/1999/xlink">
    <!-- Generator: Sketch 40.1 (33804) - http://www.bohemiancoding.com/sketch -->
    <title>Info</title>
    <desc>Created with Sketch.</desc>
    <defs></defs>
    <g id="Symbols" stroke="none" stroke-width="1" fill="none" fill-rule="evenodd">
        <g id="Info" fill="#84C9FF">
            <path d="M16,9 C16,5.13400675 12.8659932,2 9,2 C5.13400675,2 2,5.13400675 2,9 C2,12.8659932 5.13400675,16 9,16 C12.8659932,16 16,12.8659932 16,9 Z M0,9 C0,4.02943725 4.02943725,0 9,0 C13.9705627,0 18,4.02943725 18,9 C18,13.9705627 13.9705627,18 9,18 C4.02943725,18 0,13.9705627 0,9 Z" id="Oval"></path>
            <path d="M8,8 L10,8 L10,14 L8,14 L8,8 Z M8,5 C8,4.73148014 8.09307266,4.49768618 8.27922078,4.29861111 C8.4653689,4.09953604 8.70129727,4 8.98701299,4 C9.2727287,4 9.51298604,4.09490646 9.70779221,4.28472222 C9.90259838,4.47453799 10,4.71296153 10,5 C10,5.28703847 9.90259838,5.52546201 9.70779221,5.71527778 C9.51298604,5.90509354 9.2727287,6 8.98701299,6 C8.70129727,6 8.4653689,5.90046396 8.27922078,5.70138889 C8.09307266,5.50231382 8,5.26851986 8,5 L8,5 Z" id="i"></path>
        </g>
    </g>
</svg>