<?xml version="1.0" encoding="UTF-8"?>
<svg width="26px" height="26px" viewBox="0 0 26 26" version="1.1" xmlns="http://www.w3.org/2000/svg" xmlns:xlink="http://www.w3.org/1999/xlink">
    <!-- Generator: Sketch 41.2 (35397) - http://www.bohemiancoding.com/sketch -->
    <title>Pencil Icon Color</title>
    <desc>Created with Sketch.</desc>
    <defs></defs>
    <g id="Symbols" stroke="none" stroke-width="1" fill="none" fill-rule="evenodd">
        <g id="Pencil-Icon-Color" fill="#FDD713">
            <g id="Pencxil" transform="translate(13.000000, 13.000000) rotate(-315.000000) translate(-13.000000, -13.000000) translate(11.000000, 6.000000)">
                <polygon id="Triangle" points="2.84217094e-14 10.7692308 4 10.7692308 2 14"></polygon>
                <path d="M7.10542736e-15,9.69230769 L7.10542736e-15,10.2307692 L0.800000012,10.2307692 L0.800000012,9.69230769 L0.800000012,3.23076923 L0.800000012,2.69230769 L7.10542736e-15,2.69230769 L7.10542736e-15,3.23076923 L7.10542736e-15,9.69230769 Z M1,9.69230769 L1,10.2307692 L2,10.2307692 L2,9.69230769 L2,3.23076923 L2,2.69230769 L1,2.69230769 L1,3.23076923 L1,9.69230769 Z M2,9.69230769 L2,10.2307692 L3,10.2307692 L3,9.69230769 L3,3.23076923 L3,2.69230769 L2,2.69230769 L2,3.23076923 L2,9.69230769 Z M3,9.69230769 L3,10.2307692 L4,10.2307692 L4,9.69230769 L4,3.23076923 L4,2.69230769 L3,2.69230769 L3,3.23076923 L3,9.69230769 Z" id="Combined-Shape"></path>
                <path d="M2.48689958e-14,1.08639368 C2.48689958e-14,0.486395019 0.476395604,-1.59872116e-14 0.999633789,-1.59872116e-14 L0.999633789,-1.59872116e-14 L2.99407959,-1.59872116e-14 L2.99407959,-1.59872116e-14 C3.54963409,-1.59872116e-14 4,0.478983927 4,1.0866501 L4,1.11419208 L4,2.15384615 L2.48689958e-14,2.15384615 L2.48689958e-14,1.11392916 L2.48689958e-14,1.08639368 Z" id="Rectangle-4"></path>
            </g>
            <path d="M24,13 C24,6.92486775 19.0751322,2 13,2 C6.92486775,2 2,6.92486775 2,13 C2,19.0751322 6.92486775,24 13,24 C19.0751322,24 24,19.0751322 24,13 Z M0,13 C0,5.82029825 5.82029825,0 13,0 C20.1797017,0 26,5.82029825 26,13 C26,20.1797017 20.1797017,26 13,26 C5.82029825,26 0,20.1797017 0,13 Z" id="Oval-2"></path>
        </g>
    </g>
</svg>